<svg xmlns="http://www.w3.org/2000/svg" width="112" height="112" fill="none" viewBox="0 0 112 112"><path fill="#8BC53F" d="M0 0h111.321v112H0z"/><g clip-path="url(#clip0_238_5036)"><path fill="#8DC63F" d="M103.32 55.785c.117 26.508-21.124 48.097-47.444 48.215C29.553 104.117 8.12 82.724 8 56.215 7.884 29.703 29.125 8.118 55.445 8c26.323-.117 47.755 21.273 47.872 47.785h.003Z"/><path fill="#F9E988" d="M99.728 55.798c.11 24.514-19.532 44.475-43.869 44.586-24.34.111-44.16-19.672-44.27-44.186-.11-24.514 19.533-44.475 43.873-44.586 24.336-.108 44.156 19.672 44.266 44.186Z"/><path fill="#fff" d="M56.463 14.487c2.778-.548 5.663-.474 8.474-.017 2.811.475 5.583 1.349 8.09 2.728 2.51 1.392 4.684 3.278 6.848 5.05 2.157 1.793 4.314 3.582 6.36 5.549 2.067 1.947 3.92 4.156 5.423 6.598 1.529 2.42 2.861 4.99 3.803 7.71 1.84 5.445 2.477 11.313 1.562 16.908h-.284c-.921-5.548-2.173-10.831-4.127-15.862-.951-2.515-1.98-5.01-3.258-7.391-1.306-2.36-2.701-4.691-4.287-6.93-1.603-2.22-3.506-4.261-5.75-5.845-2.237-1.604-4.81-2.646-7.298-3.635-2.494-1.002-4.978-1.967-7.566-2.717-2.584-.77-5.232-1.315-7.99-1.863v-.286.003Z"/><path fill="#8BC53F" d="M78.009 40.114c-3.199-.931-6.511-2.256-9.87-3.59-.194-.848-.938-1.904-2.447-3.199-2.194-1.917-6.314-1.866-9.873-1.019-3.93-.931-7.813-1.264-11.539-.363-30.47 8.457-13.195 29.08-24.383 49.819 1.592 3.4 18.75 23.246 43.578 17.92 0 0-8.49-20.55 10.67-30.416 15.543-8 26.771-22.857 3.86-29.155l.004.003Z"/><path fill="#fff" d="M81.768 53.63a1.857 1.857 0 0 1-1.84 1.866 1.855 1.855 0 0 1-1.856-1.853 1.85 1.85 0 0 1 1.84-1.867 1.855 1.855 0 0 1 1.856 1.85v.003Z"/><path fill="#009345" d="M55.819 32.31c2.22.158 10.247 2.798 12.317 4.214C66.42 31.48 60.6 30.81 55.819 32.31Z"/><path fill="#fff" d="M57.93 45.06c0 4.742-3.817 8.582-8.522 8.582-4.704 0-8.52-3.84-8.52-8.581 0-4.742 3.816-8.579 8.52-8.579 4.705 0 8.521 3.84 8.521 8.579Z"/><path fill="#58595B" d="M55.405 45.142c0 3.332-2.684 6.036-5.993 6.036s-5.993-2.7-5.993-6.036c0-3.336 2.684-6.037 5.993-6.037s5.993 2.704 5.993 6.037Z"/><path fill="#8BC53F" d="M88.673 57.41c-6.902 4.899-14.758 8.614-25.893 8.614-5.212 0-6.27-5.578-9.716-2.844-1.78 1.412-8.05 4.57-13.028 4.33-5.021-.241-13.038-3.18-15.292-13.877-.891 10.697-1.345 18.579-5.335 27.611 7.943 12.809 26.877 22.688 44.066 18.441-1.847-12.99 9.425-25.711 15.776-32.221 2.403-2.465 7.011-6.49 9.422-10.055Z"/><path fill="#58595B" d="M88.402 57.732c-2.143 1.967-4.694 3.427-7.292 4.711a46.24 46.24 0 0 1-8.183 3c-2.815.733-5.756 1.284-8.734 1.015-2.925-.259-6.017-1.294-7.99-3.537l.093-.108c2.434 1.58 5.209 2.135 7.983 2.216 2.775.074 5.603-.134 8.39-.703a45.435 45.435 0 0 0 8.154-2.538c2.635-1.097 5.239-2.364 7.486-4.167l.09.108.003.003Z"/></g><defs><clipPath id="clip0_238_5036"><path fill="#fff" d="M8 8h95.321v96H8z"/></clipPath></defs></svg>